<svg id="Layer_1" data-name="Layer 1" xmlns="http://www.w3.org/2000/svg" viewBox="0 0 288 288"><defs><style>.cls-1{fill:#934e42;}.cls-2{fill:#ba8e49;}</style></defs><path class="cls-1" d="M159.34,184.36a2,2,0,0,1-1.46-.93,2,2,0,0,1-.16-1.73,2,2,0,0,1-1.36-1.08,2,2,0,0,1,0-1.74,2,2,0,0,1-1.06-2.94,2,2,0,0,1-.76-3,2,2,0,0,1-1-1.44,2,2,0,0,1,.53-1.65,2,2,0,0,1-.83-1.52h0a2,2,0,0,1,.68-1.6,2,2,0,0,1,.16-3.11,2,2,0,0,1-.52-1.66,2,2,0,0,1,1-1.43,2,2,0,0,1-.35-1.7,2,2,0,0,1,1.13-1.32,2,2,0,0,1,1.07-2.94,2,2,0,0,1,1.36-2.81A2,2,0,0,1,158,150a2,2,0,0,1,1.47-.93,2,2,0,0,1,1.89-2.48,2,2,0,0,1,.5-1.66h0a2,2,0,0,1,1.62-.62,2,2,0,0,1,.67-1.61,2,2,0,0,1,1.68-.46,2,2,0,0,1,.82-1.53,2,2,0,0,1,1.71-.29,2,2,0,0,1,.66-1.21,38.62,38.62,0,0,0-8.55-11.09,2,2,0,0,1-1.1.06,2,2,0,0,1-2.62,1.69,2,2,0,0,1-2.79,1.42,2,2,0,0,1-1.17,1.27,2,2,0,0,1-1.74-.14,2,2,0,0,1-3,.83,2,2,0,0,1-3.07.53,2,2,0,0,1-1.5.87,1.94,1.94,0,0,1-1.61-.65,2,2,0,0,1-3.12-.08,2,2,0,0,1-3.1-.4,2,2,0,0,1-1.69.4h0a2,2,0,0,1-1.35-1.1,2,2,0,0,1-1.72.22h0a2,2,0,0,1-1.24-1.22,2,2,0,0,1-1.74,0h0a2,2,0,0,1-1.1-1.35,2,2,0,0,1-1.73-.12,2,2,0,0,1-1-1.45,2,2,0,0,1-1.71-.29,2,2,0,0,1-.82-1.54,2,2,0,0,1-1.67-.46,2,2,0,0,1-.66-1.61,2,2,0,0,1-2.12-2.29H117a38.32,38.32,0,1,0,42.59,63.17A2,2,0,0,1,159.34,184.36Z"/><path class="cls-2" d="M217.33,166.91s0,0,0-.07,0,0,0-.06a2,2,0,0,0-.76-1.56,2,2,0,0,0-.31-3.11,2,2,0,0,0-.62-3.06,2,2,0,0,0-.92-3,2,2,0,0,0-1.21-2.88,2,2,0,0,0-.08-1.74h0a2,2,0,0,0-1.41-1,2,2,0,0,0-.25-1.72,2,2,0,0,0-1.51-.86,2,2,0,0,0-.42-1.69,2,2,0,0,0-1.59-.7,2,2,0,0,0-.58-1.64,2,2,0,0,0-1.65-.54,2,2,0,0,0-2.44-2,2,2,0,0,0-2.62-1.7,2,2,0,0,0-1-1.39,2,2,0,0,0-1.74,0,2,2,0,0,0-2.9-1.14,2,2,0,0,0-3-.85,2,2,0,0,0-3.07-.54,2,2,0,0,0-3.11-.23,2,2,0,0,0-1.58-.73,2,2,0,0,0-1.54.8,2,2,0,0,0-3.1.38,2,2,0,0,0-1.69-.4,2,2,0,0,0-1.36,1.09,2,2,0,0,0-3,1,1.94,1.94,0,0,0-1.73-.05h0a2,2,0,0,0-1.11,1.33,2,2,0,0,0-1.74.12,3.55,3.55,0,0,0-.31.23,2,2,0,0,0-.66,1.21,2,2,0,0,0-1.71.29,2,2,0,0,0-.82,1.53,2,2,0,0,0-1.68.46,2,2,0,0,0-.67,1.61,2,2,0,0,0-1.62.62h0a2,2,0,0,0-.5,1.66,2,2,0,0,0-1.89,2.48A2,2,0,0,0,158,150a2,2,0,0,0-.17,1.73,2,2,0,0,0-1.36,2.81,2,2,0,0,0-1.07,2.94,2,2,0,0,0-1.13,1.32,2,2,0,0,0,.35,1.7,2,2,0,0,0-1,1.43,2,2,0,0,0,.52,1.66,2,2,0,0,0-.16,3.11,2,2,0,0,0-.68,1.6h0a2,2,0,0,0,.83,1.52,2,2,0,0,0-.53,1.65,2,2,0,0,0,1,1.44,2,2,0,0,0,.76,3,2,2,0,0,0,1.06,2.94,2,2,0,0,0,0,1.74,2,2,0,0,0,1.36,1.08,2,2,0,0,0,.16,1.73,2,2,0,0,0,1.46.93,2,2,0,0,0,.25,1.57s0,.1.08.14h0a2,2,0,0,0,1.55.78,2,2,0,0,0,2.12,2.3,2,2,0,0,0,2.34,2.07,2,2,0,0,0,2.52,1.83,2,2,0,0,0,1,1.45,2,2,0,0,0,1.73.12A2,2,0,0,0,172,196h0a2,2,0,0,0,1.73-.05,2,2,0,0,0,1.24,1.23h0a2,2,0,0,0,1.72-.22,2,2,0,0,0,1.35,1.09h0a2,2,0,0,0,1.69-.39,2,2,0,0,0,3.1.39,2,2,0,0,0,1.54.81,2,2,0,0,0,1.58-.72,2,2,0,0,0,3.11-.22,2,2,0,0,0,3.08-.53,2,2,0,0,0,3-.84,2,2,0,0,0,2.92-1.13,2,2,0,0,0,1.73,0,2,2,0,0,0,1-1.38,2,2,0,0,0,1.72-.21,1.93,1.93,0,0,0,.9-1.48,2,2,0,0,0,1.7-.37,2,2,0,0,0,.75-1.57,2,2,0,0,0,2.24-2.17,2,2,0,0,0,2-2.38,2,2,0,0,0,1.77-2.57,2,2,0,0,0,1.42-1,2,2,0,0,0,.08-1.74,2,2,0,0,0,1.32-1.14h0a2,2,0,0,0-.09-1.73,2,2,0,0,0,.93-3,2,2,0,0,0,1.06-1.38h0a2,2,0,0,0-.43-1.68,2,2,0,0,0,.92-1.47h0a2,2,0,0,0-.6-1.63A2,2,0,0,0,217.33,166.91Z"/><path class="cls-2" d="M117.57,124.43a2,2,0,0,0,1.62.63,2,2,0,0,0,.66,1.61,2,2,0,0,0,1.67.46,2,2,0,0,0,.82,1.54,2,2,0,0,0,1.71.29,2,2,0,0,0,1,1.45,2,2,0,0,0,1.73.12,2,2,0,0,0,1.1,1.35h0a2,2,0,0,0,1.74,0,2,2,0,0,0,1.24,1.22h0a2,2,0,0,0,1.72-.22,2,2,0,0,0,1.35,1.1h0a2,2,0,0,0,1.69-.4,2,2,0,0,0,3.1.4,2,2,0,0,0,3.12.08,1.94,1.94,0,0,0,1.61.65,2,2,0,0,0,1.5-.87,2,2,0,0,0,3.07-.53,2,2,0,0,0,3-.83,2,2,0,0,0,1.74.14,2,2,0,0,0,1.17-1.27,2,2,0,0,0,2.79-1.42,2,2,0,0,0,2.62-1.69,2,2,0,0,0,1.1-.06,1.81,1.81,0,0,0,.6-.31,2,2,0,0,0,.75-1.57,2,2,0,0,0,2.24-2.17,2,2,0,0,0,1.59-.7,2,2,0,0,0,.43-1.68,2,2,0,0,0,1.51-.85,2,2,0,0,0,.26-1.72,2,2,0,0,0,1.5-2.74,2,2,0,0,0,1.32-1.13h0a2,2,0,0,0-.09-1.74,2,2,0,0,0,1.19-1.26,2,2,0,0,0-.26-1.72,2,2,0,0,0,1.06-1.37h0a2,2,0,0,0-.43-1.69A2,2,0,0,0,173,106h0a2,2,0,0,0-.6-1.63,2,2,0,0,0,.77-1.56s0,0,0-.06,0-.05,0-.07a2,2,0,0,0-.77-1.56,2,2,0,0,0-.3-3.11,2,2,0,0,0-.62-3.06,2,2,0,0,0-.92-3,2,2,0,0,0,.1-1.74,2,2,0,0,0-1.31-1.14,2,2,0,0,0-.08-1.73h0a2,2,0,0,0-1.42-1,2,2,0,0,0-1.75-2.58,2,2,0,0,0-.42-1.68,2,2,0,0,0-1.59-.71,2,2,0,0,0-2.23-2.18,2,2,0,0,0-.75-1.57,2,2,0,0,0-1.69-.38,2,2,0,0,0-.9-1.49,2,2,0,0,0-1.72-.21,2,2,0,0,0-1-1.39,2,2,0,0,0-1.74,0,2,2,0,0,0-2.9-1.15,2,2,0,0,0-1.3-1.16,2,2,0,0,0-1.71.32,2,2,0,0,0-3.07-.55,2,2,0,0,0-1.5-.87,2,2,0,0,0-1.61.64,2,2,0,0,0-1.58-.73,2,2,0,0,0-1.54.8,2,2,0,0,0-1.65-.56,1.94,1.94,0,0,0-1.45,1,2,2,0,0,0-1.69-.41,2,2,0,0,0-1.36,1.09,2,2,0,0,0-1.72-.23,2,2,0,0,0-1.24,1.22,2,2,0,0,0-1.74,0h0a2,2,0,0,0-1.11,1.34,2,2,0,0,0-2.7,1.56,2,2,0,0,0-1.71.29,2,2,0,0,0-.83,1.53,2,2,0,0,0-2.34,2.06,2,2,0,0,0-1.62.62h0a2,2,0,0,0-.51,1.66A2,2,0,0,0,115.26,85a2,2,0,0,0-1.63,2.66,2,2,0,0,0-1.37,1.07,2,2,0,0,0,0,1.74,2,2,0,0,0-1.26,1.2,2,2,0,0,0,.19,1.73,2,2,0,0,0-1.13,1.32,2,2,0,0,0,.35,1.7,2,2,0,0,0-.47,3.09,2,2,0,0,0-.16,3.11,2,2,0,0,0-.68,1.6h0a2,2,0,0,0,.83,1.52,2,2,0,0,0-.53,1.66,2,2,0,0,0,1,1.43,2,2,0,0,0,.76,3,2,2,0,0,0,1.06,2.93,2,2,0,0,0,0,1.74,2,2,0,0,0,1.36,1.08,2,2,0,0,0,.16,1.73,2,2,0,0,0,1.46.94,2,2,0,0,0,.33,1.7h0a2,2,0,0,0,1.48.78h.07A2,2,0,0,0,117.57,124.43Z"/></svg>