<svg id="Layer_1" data-name="Layer 1" xmlns="http://www.w3.org/2000/svg" viewBox="0 0 288 288"><defs><style>.cls-1{fill:#562b2b;}.cls-2{fill:#682c2c;}</style></defs><path class="cls-1" d="M187.41,135.9a2,2,0,0,1-2.66,1.62,2,2,0,0,1-2.82,1.35,2,2,0,0,1-2.94,1.07,2,2,0,0,1-1.32,1.12,2,2,0,0,1-1.7-.36,2,2,0,0,1-1.44,1,2,2,0,0,1-1.65-.53,2,2,0,0,1-1.52.84h0a2,2,0,0,1-1.6-.69,2,2,0,0,1-1.6.68,2,2,0,0,1-1.51-.84,2,2,0,0,1-3.09-.47,2,2,0,0,1-3-.77,2,2,0,0,1-1.72.18,2,2,0,0,1-1.21-1.26,2,2,0,0,1-1.74,0,2,2,0,0,1-1.07-1.37,2,2,0,0,1-2.66-1.63,2,2,0,0,1-1.7-.34,2,2,0,0,1-.78-1.55,2,2,0,0,1-1.66-.51h0a2,2,0,0,1-.62-1.62,2,2,0,0,1-2.07-2.34,2,2,0,0,1-1.82-2.54,2,2,0,0,1-1.21-.66,38.62,38.62,0,0,0-11.09,8.55,2,2,0,0,1,.06,1.1,2,2,0,0,1,1.69,2.63,2,2,0,0,1,1.39,1,2,2,0,0,1,0,1.74,2,2,0,0,1,1.27,1.18,2,2,0,0,1-.14,1.73,2,2,0,0,1,.83,3,2,2,0,0,1,1,1.41,2,2,0,0,1-.49,1.67,2,2,0,0,1,.22,3.11,2,2,0,0,1-.09,3.12,2,2,0,0,1,.56,1.64,2,2,0,0,1-.95,1.45,2,2,0,0,1,.39,1.69h0a2,2,0,0,1-1.09,1.35,2,2,0,0,1,.22,1.73h0a2,2,0,0,1-1.22,1.23,2,2,0,0,1,.05,1.74h0a2,2,0,0,1-1.35,1.1,2,2,0,0,1-1.57,2.7,2,2,0,0,1-.29,1.71,2,2,0,0,1-1.54.82,2,2,0,0,1-.46,1.67,2,2,0,0,1-1.61.66,2,2,0,0,1-2.29,2.12s0,.05,0,.07A38.32,38.32,0,1,0,189,135.65,2,2,0,0,1,187.41,135.9Z"/><path class="cls-2" d="M201.87,110.87a2,2,0,0,0-.72-1.58,2,2,0,0,0-.22-3.12,2,2,0,0,0,.49-1.66,2,2,0,0,0-1-1.41,2,2,0,0,0-.84-3,2,2,0,0,0,.15-1.73,2,2,0,0,0-1.28-1.18,2,2,0,0,0,0-1.74,1.94,1.94,0,0,0-1.38-1,2,2,0,0,0-.21-1.73,2,2,0,0,0-1.48-.9,2,2,0,0,0-.37-1.7,2,2,0,0,0-1.57-.75,2,2,0,0,0-2.17-2.24,2,2,0,0,0-.7-1.59,2,2,0,0,0-1.68-.42,2,2,0,0,0-.86-1.52,2,2,0,0,0-1.72-.25,2,2,0,0,0-1-1.43,2,2,0,0,0-1.74-.08,2,2,0,0,0-1.14-1.32h0a2,2,0,0,0-1.73.09,2,2,0,0,0-3-.93,2,2,0,0,0-1.38-1.06h0a2,2,0,0,0-1.68.44,2,2,0,0,0-1.47-.92h0a2,2,0,0,0-1.63.59,2,2,0,0,0-1.56-.76h-.13a2,2,0,0,0-1.56.76,2,2,0,0,0-3.11.31,2,2,0,0,0-3.06.61,2,2,0,0,0-3,.92,2,2,0,0,0-1.74-.1,2,2,0,0,0-1.14,1.31,2,2,0,0,0-1.74.08h0a2,2,0,0,0-1,1.42A2,2,0,0,0,150.92,85a2,2,0,0,0-1.69.42,2,2,0,0,0-.7,1.58,2,2,0,0,0-2.18,2.24,2,2,0,0,0-1.95,2.43,2,2,0,0,0-1.49.9,2,2,0,0,0-.21,1.72,2,2,0,0,0-1.43,2.78,2,2,0,0,0-1.14,2.91,2,2,0,0,0-1.16,1.29,2,2,0,0,0,.31,1.71,2,2,0,0,0-1,1.41,2,2,0,0,0,.48,1.67,2,2,0,0,0-.88,1.49,2,2,0,0,0,.65,1.62,2,2,0,0,0-.73,1.57,2,2,0,0,0,.8,1.55,2,2,0,0,0-.57,1.64,2,2,0,0,0,1,1.45,2,2,0,0,0,.69,3,2,2,0,0,0,1,3,2,2,0,0,0,0,1.74h0a2,2,0,0,0,1.33,1.11A2,2,0,0,0,142,126a1.92,1.92,0,0,0,.23.31,2,2,0,0,0,1.21.66,2,2,0,0,0,1.82,2.54,2,2,0,0,0,2.07,2.34,2,2,0,0,0,.62,1.62h0a2,2,0,0,0,1.66.51,2,2,0,0,0,.78,1.55,2,2,0,0,0,1.7.34,2,2,0,0,0,2.66,1.63,2,2,0,0,0,1.07,1.37,2,2,0,0,0,1.74,0,2,2,0,0,0,1.21,1.26,2,2,0,0,0,1.72-.18,2,2,0,0,0,3,.77,2,2,0,0,0,3.09.47,2,2,0,0,0,1.51.84,2,2,0,0,0,1.6-.68,2,2,0,0,0,1.6.69h0a2,2,0,0,0,1.52-.84,2,2,0,0,0,1.65.53,2,2,0,0,0,1.44-1,2,2,0,0,0,1.7.36,2,2,0,0,0,1.32-1.12,2,2,0,0,0,2.94-1.07,2,2,0,0,0,2.82-1.35,2,2,0,0,0,2.66-1.62,2,2,0,0,0,1.57-.25l.14-.08h0a2,2,0,0,0,.78-1.55,2,2,0,0,0,2.3-2.12,2,2,0,0,0,2.07-2.33,2,2,0,0,0,1.53-.82,2,2,0,0,0,.3-1.71,2,2,0,0,0,1.57-2.7,2,2,0,0,0,1.34-1.1h0a2,2,0,0,0,0-1.74,2,2,0,0,0,1.23-1.23h0a2,2,0,0,0-.22-1.73,2,2,0,0,0,1.09-1.35h0a2,2,0,0,0-.39-1.69,2,2,0,0,0,.39-3.09A2,2,0,0,0,201.87,110.87Z"/><path class="cls-2" d="M127.48,177.67a2,2,0,0,0,.63-1.62,2,2,0,0,0,1.61-.66,2,2,0,0,0,.46-1.67,2,2,0,0,0,1.54-.82,2,2,0,0,0,.29-1.71,2,2,0,0,0,1.57-2.7,2,2,0,0,0,1.35-1.1h0a2,2,0,0,0-.05-1.74,2,2,0,0,0,1.22-1.23h0a2,2,0,0,0-.22-1.73,2,2,0,0,0,1.09-1.35h0a2,2,0,0,0-.39-1.69,2,2,0,0,0,.95-1.45,2,2,0,0,0-.56-1.64,2,2,0,0,0,.09-3.12,2,2,0,0,0-.22-3.11,2,2,0,0,0,.49-1.67,2,2,0,0,0-1-1.41,2,2,0,0,0-.83-3,2,2,0,0,0,.14-1.73,2,2,0,0,0-1.27-1.18,2,2,0,0,0,0-1.74,2,2,0,0,0-1.39-1,2,2,0,0,0-1.69-2.63,2,2,0,0,0-.06-1.1,1.91,1.91,0,0,0-.31-.6,2,2,0,0,0-1.57-.75,2,2,0,0,0-.53-1.65,2,2,0,0,0-1.64-.59,2,2,0,0,0-2.38-2,2,2,0,0,0-.85-1.52,2,2,0,0,0-1.72-.25,2,2,0,0,0-1-1.43,2,2,0,0,0-1.74-.08,1.94,1.94,0,0,0-1.13-1.31h0a2,2,0,0,0-1.74.09,2,2,0,0,0-3-.94,2,2,0,0,0-1.37-1.06h0a2,2,0,0,0-1.68.44,2,2,0,0,0-1.47-.92h0a2,2,0,0,0-1.63.6,2,2,0,0,0-1.56-.77h-.13a2,2,0,0,0-1.56.76,2,2,0,0,0-3.11.31,2,2,0,0,0-1.68-.44,2,2,0,0,0-1.38,1,2,2,0,0,0-3,.92,2,2,0,0,0-2.88,1.21,2,2,0,0,0-1.74.08h0a2,2,0,0,0-1,1.42,2,2,0,0,0-1.72.25,2,2,0,0,0-.86,1.51,2,2,0,0,0-2.39,2,2,2,0,0,0-1.64.58,2,2,0,0,0-.54,1.65,2,2,0,0,0-2,2.44,2,2,0,0,0-1.49.89,2,2,0,0,0-.21,1.73,2,2,0,0,0-1.42,2.77,2,2,0,0,0-1.29,1.17,2,2,0,0,0,.14,1.74,2,2,0,0,0-.85,3,2,2,0,0,0-.54,3.08,2,2,0,0,0-.23,3.11,2,2,0,0,0,.07,3.12,2,2,0,0,0,.38,3.1,2,2,0,0,0,.69,3,2,2,0,0,0,1,3,2,2,0,0,0,0,1.74h0a2,2,0,0,0,1.34,1.11,2,2,0,0,0,1.56,2.7,2,2,0,0,0,.29,1.72,2,2,0,0,0,1.53.82,2,2,0,0,0,.45,1.68,2,2,0,0,0,1.61.66,2,2,0,0,0,.62,1.62h0a2,2,0,0,0,1.66.51A2,2,0,0,0,88.05,180a2,2,0,0,0,.93,1.47,2,2,0,0,0,1.73.16A2,2,0,0,0,93.52,183a2,2,0,0,0,2.93,1.08,2,2,0,0,0,3,.77,2,2,0,0,0,3.09.47,2,2,0,0,0,1.52.84,2,2,0,0,0,1.59-.68,2,2,0,0,0,1.6.69h0a2,2,0,0,0,1.52-.84,2,2,0,0,0,3.09-.45,2,2,0,0,0,1.7.36,2,2,0,0,0,1.33-1.12,2,2,0,0,0,2.93-1.07,2,2,0,0,0,2.82-1.35,2,2,0,0,0,1.73-.15,2,2,0,0,0,.94-1.47,2,2,0,0,0,1.7-.33h0a2,2,0,0,0,.78-1.48s0,0,0-.07A2,2,0,0,0,127.48,177.67Z"/></svg>