<svg id="Layer_1" data-name="Layer 1" xmlns="http://www.w3.org/2000/svg" viewBox="0 0 288 288"><defs><style>.cls-1{fill:#c16a48;}.cls-2{fill:#993131;}</style></defs><path class="cls-1" d="M162.62,178.41a2,2,0,0,1-1.46-.94,2,2,0,0,1-.16-1.73,2,2,0,0,1-1.35-2.81,2,2,0,0,1-1.25-1.21,2,2,0,0,1,.19-1.73,2,2,0,0,1-1.13-1.33,2,2,0,0,1,.36-1.7,2,2,0,0,1-1-1.43,2,2,0,0,1,.53-1.66,2,2,0,0,1-.84-1.52h0a2,2,0,0,1,.69-1.59,2,2,0,0,1-.68-1.6,2,2,0,0,1,.84-1.52,2,2,0,0,1-.52-1.66,2,2,0,0,1,1-1.43,2,2,0,0,1-.35-1.7,2,2,0,0,1,1.12-1.32,2,2,0,0,1-.18-1.73,2,2,0,0,1,1.26-1.2,2,2,0,0,1,0-1.74,2,2,0,0,1,1.37-1.07,2,2,0,0,1,1.63-2.66,2,2,0,0,1,1.89-2.49,2,2,0,0,1,.51-1.66h0a2,2,0,0,1,1.62-.62,2,2,0,0,1,2.34-2.06,2,2,0,0,1,2.54-1.82,2,2,0,0,1,.66-1.21,38.35,38.35,0,0,0-8.55-11.09,2.06,2.06,0,0,1-1.1.06,2,2,0,0,1-.9,1.48,2,2,0,0,1-1.73.2,2,2,0,0,1-2.78,1.42,2,2,0,0,1-2.91,1.13,2,2,0,0,1-1.3,1.16,2,2,0,0,1-1.71-.32,2,2,0,0,1-3.07.53,2,2,0,0,1-3.12.22A2,2,0,0,1,142,128a2,2,0,0,1-3.09-.39,2,2,0,0,1-1.69.39h0a2,2,0,0,1-1.35-1.1,2,2,0,0,1-1.73.23h0a2,2,0,0,1-1.23-1.23,2,2,0,0,1-1.74,0h0a2,2,0,0,1-1.1-1.34,2,2,0,0,1-1.74-.13,2,2,0,0,1-1-1.44,2,2,0,0,1-2.53-1.83,2,2,0,0,1-2.33-2.07,2,2,0,0,1-2.12-2.3h-.07A38.32,38.32,0,1,0,162.87,180,2,2,0,0,1,162.62,178.41Z"/><path class="cls-2" d="M220.6,161v-.13a2,2,0,0,0-.76-1.56,2,2,0,0,0-.3-3.1,2,2,0,0,0-.62-3.07,2,2,0,0,0-.92-3,2,2,0,0,0-1.21-2.88,2,2,0,0,0-.08-1.73h0a2,2,0,0,0-1.42-1,2,2,0,0,0-.25-1.72,2,2,0,0,0-1.51-.86,2,2,0,0,0-2-2.39,2,2,0,0,0-2.24-2.18,2,2,0,0,0-2.43-2,2,2,0,0,0-.9-1.49,2,2,0,0,0-1.72-.2,2,2,0,0,0-1-1.4,2,2,0,0,0-1.74,0,2,2,0,0,0-1.17-1.29,2,2,0,0,0-1.74.14,2,2,0,0,0-3-.84,2,2,0,0,0-1.41-1,2,2,0,0,0-1.66.49,2,2,0,0,0-1.5-.88,2,2,0,0,0-1.62.64,2,2,0,0,0-1.57-.72,2,2,0,0,0-1.55.8,2,2,0,0,0-3.09.38,2,2,0,0,0-3.05.69,1.93,1.93,0,0,0-1.72-.23,2,2,0,0,0-1.24,1.22,2,2,0,0,0-1.74-.06h0a2,2,0,0,0-1.11,1.34,2,2,0,0,0-1.73.12,1.19,1.19,0,0,0-.31.23,2,2,0,0,0-.66,1.21,2,2,0,0,0-2.54,1.82,2,2,0,0,0-2.34,2.06,2,2,0,0,0-1.62.62h0a2,2,0,0,0-.51,1.66,2,2,0,0,0-1.89,2.49,2,2,0,0,0-1.63,2.66,2,2,0,0,0-1.37,1.07,2,2,0,0,0,0,1.74,2,2,0,0,0-1.26,1.2,2,2,0,0,0,.18,1.73,2,2,0,0,0-1.12,1.32,2,2,0,0,0,.35,1.7,2,2,0,0,0-1,1.43,2,2,0,0,0,.52,1.66,2,2,0,0,0-.84,1.52,2,2,0,0,0,.68,1.6,2,2,0,0,0-.69,1.59h0a2,2,0,0,0,.84,1.52,2,2,0,0,0-.53,1.66,2,2,0,0,0,1,1.43,2,2,0,0,0-.36,1.7,2,2,0,0,0,1.13,1.33,2,2,0,0,0-.19,1.73,2,2,0,0,0,1.25,1.21,2,2,0,0,0,1.35,2.81,2,2,0,0,0,.16,1.73,2,2,0,0,0,1.46.94,2,2,0,0,0,.25,1.57l.08.13h0a2,2,0,0,0,1.55.79,2,2,0,0,0,.5,1.66,2,2,0,0,0,1.62.63,2,2,0,0,0,.66,1.61,2,2,0,0,0,1.67.46,2,2,0,0,0,.82,1.54,2,2,0,0,0,1.71.3,2,2,0,0,0,2.7,1.57,2,2,0,0,0,1.1,1.34h0a2,2,0,0,0,1.74,0,2,2,0,0,0,1.23,1.22h0A2,2,0,0,0,180,191a2,2,0,0,0,1.35,1.1h0a2,2,0,0,0,1.69-.4,2,2,0,0,0,1.45,1,2,2,0,0,0,1.65-.56,2,2,0,0,0,3.11.08,2,2,0,0,0,3.12-.22,2,2,0,0,0,1.66.49,2,2,0,0,0,1.41-1,2,2,0,0,0,3-.83,2,2,0,0,0,2.91-1.13,2,2,0,0,0,1.74,0,2,2,0,0,0,1-1.39,2,2,0,0,0,1.73-.2,2,2,0,0,0,.9-1.49,2,2,0,0,0,1.7-.37,2,2,0,0,0,.75-1.57,2,2,0,0,0,2.24-2.17,2,2,0,0,0,1.59-.7,2,2,0,0,0,.43-1.68,2,2,0,0,0,1.77-2.57,2,2,0,0,0,1.5-2.73,2,2,0,0,0,1.32-1.14h0a2,2,0,0,0-.09-1.74,2,2,0,0,0,1.19-1.26,2,2,0,0,0-.26-1.72A2,2,0,0,0,220,167.3h0a2,2,0,0,0-.43-1.69,2,2,0,0,0,.91-1.47h0a2,2,0,0,0-.59-1.63A2,2,0,0,0,220.6,161Z"/><path class="cls-2" d="M120.85,118.48a2,2,0,0,0,1.62.63,2,2,0,0,0,2.33,2.07,2,2,0,0,0,2.53,1.83,2,2,0,0,0,1,1.44,2,2,0,0,0,1.74.13,2,2,0,0,0,1.1,1.34h0a2,2,0,0,0,1.74,0,2,2,0,0,0,1.23,1.23h0a2,2,0,0,0,1.73-.23,2,2,0,0,0,1.35,1.1h0a2,2,0,0,0,1.69-.39A2,2,0,0,0,142,128a2,2,0,0,0,3.12.09,2,2,0,0,0,3.12-.22,2,2,0,0,0,3.07-.53,2,2,0,0,0,1.71.32,2,2,0,0,0,1.3-1.16,2,2,0,0,0,2.91-1.13,2,2,0,0,0,2.78-1.42,2,2,0,0,0,1.73-.2,2,2,0,0,0,.9-1.48,2.06,2.06,0,0,0,1.1-.06,2.14,2.14,0,0,0,.6-.31,2,2,0,0,0,.75-1.57,2,2,0,0,0,1.65-.54,2,2,0,0,0,.59-1.63,2,2,0,0,0,1.59-.7,2,2,0,0,0,.42-1.69,2,2,0,0,0,1.52-.85,2,2,0,0,0,.25-1.72,2,2,0,0,0,1.51-2.73,2,2,0,0,0,1.32-1.14h0a2,2,0,0,0-.09-1.73A2,2,0,0,0,175,106.3a2,2,0,0,0-.26-1.71,2,2,0,0,0,1.06-1.38h0a2,2,0,0,0-.44-1.68,2,2,0,0,0,.92-1.48h0a2,2,0,0,0-.6-1.63,2,2,0,0,0,.77-1.55v-.14a2,2,0,0,0-.76-1.56,2,2,0,0,0-.31-3.1,2,2,0,0,0-.61-3.06,2,2,0,0,0-.92-3,2,2,0,0,0,.1-1.73,2,2,0,0,0-1.31-1.14,2,2,0,0,0-.08-1.74h0a2,2,0,0,0-1.42-1,2,2,0,0,0-1.76-2.58,2,2,0,0,0-.42-1.69,2,2,0,0,0-1.58-.7,2,2,0,0,0-2.24-2.18,2,2,0,0,0-2.44-2,2,2,0,0,0-2.61-1.7,2,2,0,0,0-1-1.39,2,2,0,0,0-1.74,0A2,2,0,0,0,154.4,67a2,2,0,0,0-1.29-1.16,2,2,0,0,0-1.71.31,2,2,0,0,0-3.08-.54,2,2,0,0,0-3.11-.24,2,2,0,0,0-1.57-.72,2,2,0,0,0-1.55.8,2,2,0,0,0-3.09.38,2,2,0,0,0-3.05.69,2,2,0,0,0-1.72-.23A2,2,0,0,0,133,67.55a2,2,0,0,0-1.74-.06h0a2,2,0,0,0-1.11,1.34,2,2,0,0,0-2.7,1.56,2,2,0,0,0-2.54,1.82,2,2,0,0,0-2.34,2.06,2,2,0,0,0-1.62.63h0a2,2,0,0,0-.51,1.66,2,2,0,0,0-1.55.78,2,2,0,0,0-.34,1.7,2,2,0,0,0-1.63,2.66,2,2,0,0,0-1.37,1.07,2,2,0,0,0,0,1.74,2,2,0,0,0-1.26,1.2,2,2,0,0,0,.18,1.73,2,2,0,0,0-.77,3,2,2,0,0,0-.47,3.08,2,2,0,0,0-.16,3.12,2,2,0,0,0-.69,1.59h0a2,2,0,0,0,.84,1.53,2,2,0,0,0,.45,3.08,2,2,0,0,0,.76,3,2,2,0,0,0,1.07,2.94,2,2,0,0,0,1.35,2.81,2,2,0,0,0,1.62,2.67,2,2,0,0,0,.33,1.71h0a2,2,0,0,0,1.48.77h.07A2,2,0,0,0,120.85,118.48Z"/></svg>